# This file uses centimeters as units for non-parametric coordinates.

v 8.710388 0.000000 7.191012
v 9.066132 0.000000 -8.666172
v 6.801086 2.555667 4.967929
v 7.230286 2.555667 -6.747732
v -6.160522 2.555667 4.690739
v -6.753662 2.555667 -8.175447
v -8.179443 0.000000 6.961264
v -8.671082 0.000000 -9.849516
v 1.543915 2.555667 -8.444716
v 1.101105 2.441391 7.052457
v 0.000000 0.000000 11.446524
v 0.000000 0.000000 -11.446524
v 7.673523 2.421453 -1.462245
v -8.850830 2.638210 0.940511
v -11.446533 0.000000 0.000000
v 11.446533 0.000000 0.000000
v 2.838776 1.700023 1.182433
v -0.076996 1.700023 -0.000001
v -1.259430 1.700023 2.915784
v -3.543671 1.700023 -0.000000
v 2.287872 1.700023 -2.364879
v -1.259430 1.700023 -2.915789
vt 0.059913 0.307230
vt 0.059913 0.307230
vt 0.059913 0.307230
vt 0.059913 0.307230
vt 0.059913 0.307230
vt 0.059913 0.307230
vt 0.059913 0.307230
vt 0.059913 0.307230
vt 0.059913 0.307230
vt 0.059913 0.307230
vt 0.059913 0.307230
vt 0.059913 0.307230
vt 0.059913 0.307230
vt 0.059913 0.307230
vt 0.059913 0.307230
vt 0.059913 0.307230
vt 0.059913 0.307230
vt 0.059913 0.307230
vt 0.059913 0.307230
vt 0.011845 0.011843
vt 0.059913 0.307230
vt 0.059913 0.307230
vt 0.059913 0.307230
vt 0.059913 0.270306
vt 0.059913 0.270306
vt 0.059913 0.270306
vt 0.059913 0.270306
vt 0.059913 0.270306
vt 0.011845 0.011843
vt 0.011845 0.011843
vt 0.011845 0.011843
vt 0.011843 0.011843
vt 0.011843 0.011843
vn 0.594708 0.789868 0.149770
vn 0.622630 0.781147 0.046282
vn 0.634107 0.773216 -0.006747
vn 0.594708 0.789868 0.149770
vn -0.000000 1.000000 -0.000000
vn -0.000000 1.000000 -0.000000
vn 0.000000 1.000000 0.000000
vn -0.647498 0.668822 0.365272
vn -0.699439 0.710123 0.080693
vn -0.703594 0.709959 -0.030218
vn -0.647498 0.668822 0.365272
vn 0.211847 0.684024 -0.698020
vn 0.016201 0.702117 -0.711878
vn 0.099512 0.697768 -0.709378
vn 0.211847 0.684024 -0.698020
vn -0.047617 0.834331 0.549204
vn 0.242590 0.788198 0.565592
vn 0.242590 0.788198 0.565592
vn 0.020159 0.830031 0.557353
vn 0.000000 1.000000 0.000000
vn -0.000000 1.000000 -0.000000
vn 0.000000 1.000000 0.000000
vn -0.222669 0.827166 0.515960
vn -0.047617 0.834331 0.549204
vn 0.020159 0.830031 0.557353
vn -0.222669 0.827166 0.515960
vn 0.099512 0.697768 -0.709378
vn 0.016201 0.702117 -0.711878
vn -0.077950 0.701148 -0.708742
vn -0.077950 0.701148 -0.708742
vn -0.000000 1.000000 -0.000000
vn -0.000000 1.000000 -0.000000
vn -0.000000 1.000000 -0.000000
vn -0.000000 1.000000 -0.000000
vn -0.000000 1.000000 -0.000000
vn 0.000000 1.000000 0.000000
vn 0.000000 1.000000 0.000000
vn -0.000000 1.000000 -0.000000
vn 0.000000 1.000000 0.000000
vn -0.703594 0.709959 -0.030218
vn -0.699439 0.710123 0.080693
vn -0.695186 0.695503 -0.181635
vn -0.695186 0.695503 -0.181635
vn 0.634107 0.773216 -0.006747
vn 0.622630 0.781147 0.046282
vn 0.652823 0.747136 -0.124936
vn 0.652823 0.747136 -0.124936
vn -0.170795 0.984336 -0.043719
vn -0.170795 0.984336 -0.043719
vn -0.170795 0.984336 -0.043719
vn -0.067926 0.987130 -0.144780
vn -0.067926 0.987130 -0.144780
vn -0.067926 0.987130 -0.144780
vn -0.067926 0.987130 -0.144780
vn 0.147024 0.984313 -0.097529
vn 0.147024 0.984313 -0.097529
vn 0.147024 0.984313 -0.097529
vn 0.147024 0.984313 -0.097529
vn 0.088214 0.970525 -0.224274
vn 0.088214 0.970525 -0.224274
vn 0.088214 0.970525 -0.224274
vn -0.137734 0.989998 0.030545
vn -0.137734 0.989998 0.030545
vn -0.137734 0.989998 0.030545
vn -0.137734 0.989998 0.030545
vn -0.034926 0.989039 0.143466
vn -0.034926 0.989039 0.143466
vn -0.034926 0.989039 0.143466
vn -0.034926 0.989039 0.143466
vn 0.005044 0.987834 0.155432
vn 0.005044 0.987834 0.155432
vn 0.005044 0.987834 0.155432
vn 0.145629 0.988258 0.046252
vn 0.145629 0.988258 0.046252
vn 0.145629 0.988258 0.046252
vn 0.145629 0.988258 0.046252
s off
f 1/1/1 16/23/2 13/19/3 3/3/4
f 17/20/5 18/29/6 19/30/7
f 5/5/8 14/21/9 15/22/10 7/7/11
f 2/2/12 12/18/13 9/14/14 4/4/15
f 11/17/16 1/1/17 3/3/18 10/15/19
f 19/30/20 18/29/21 20/31/22
f 7/11/23 11/17/24 10/15/25 5/12/26
f 9/14/27 12/18/28 8/9/29 6/10/30
f 17/20/31 21/32/32 18/29/33
f 18/29/34 21/32/35 22/33/36
f 20/31/37 18/29/38 22/33/39
f 15/22/40 14/21/41 6/6/42 8/8/43
f 13/19/44 16/23/45 2/2/46 4/4/47
f 3/3/48 13/19/49 17/24/50
f 10/16/51 3/3/52 17/24/53 19/25/54
f 14/21/55 5/5/56 19/25/57 20/26/58
f 5/5/59 10/16/60 19/25/61
f 13/19/62 4/4/63 21/27/64 17/24/65
f 4/4/66 9/13/67 22/28/68 21/27/69
f 9/13/70 6/6/71 22/28/72
f 6/6/73 14/21/74 20/26/75 22/28/76
